{
    "asset" : {
        "generator" : "Khronos glTF Blender I/O v1.2.75",
        "version" : "2.0"
    },
    "scene" : 0,
    "scenes" : [
        {
            "name" : "Scene",
            "nodes" : [
                0
            ]
        }
    ],
    "nodes" : [
        {
            "mesh" : 0,
            "name" : "hasami",
            "rotation" : [
                0,
                0.08715573698282242,
                0,
                0.9961947202682495
            ],
            "translation" : [
                -0.04864053055644035,
                0,
                0
            ]
        }
    ],
    "materials" : [
        {
            "doubleSided" : true,
            "emissiveFactor" : [
                0,
                0,
                0
            ],
            "name" : "hasami_tex",
            "pbrMetallicRoughness" : {
                "baseColorTexture" : {
                    "index" : 0,
                    "texCoord" : 0
                },
                "metallicFactor" : 0,
                "roughnessFactor" : 0.5
            }
        }
    ],
    "meshes" : [
        {
            "name" : "hasami",
            "primitives" : [
                {
                    "attributes" : {
                        "POSITION" : 0,
                        "NORMAL" : 1,
                        "TEXCOORD_0" : 2
                    },
                    "indices" : 3,
                    "material" : 0
                }
            ]
        }
    ],
    "textures" : [
        {
            "source" : 0
        }
    ],
    "images" : [
        {
            "bufferView" : 4,
            "mimeType" : "image/png",
            "name" : "None_2D_View"
        }
    ],
    "accessors" : [
        {
            "bufferView" : 0,
            "componentType" : 5126,
            "count" : 2678,
            "max" : [
                4.723660469055176,
                0.5,
                15
            ],
            "min" : [
                -5.554416179656982,
                -0.5,
                -8.009491920471191
            ],
            "type" : "VEC3"
        },
        {
            "bufferView" : 1,
            "componentType" : 5126,
            "count" : 2678,
            "type" : "VEC3"
        },
        {
            "bufferView" : 2,
            "componentType" : 5126,
            "count" : 2678,
            "type" : "VEC2"
        },
        {
            "bufferView" : 3,
            "componentType" : 5123,
            "count" : 4884,
            "type" : "SCALAR"
        }
    ],
    "bufferViews" : [
        {
            "buffer" : 0,
            "byteLength" : 32136,
            "byteOffset" : 0
        },
        {
            "buffer" : 0,
            "byteLength" : 32136,
            "byteOffset" : 32136
        },
        {
            "buffer" : 0,
            "byteLength" : 21424,
            "byteOffset" : 64272
        },
        {
            "buffer" : 0,
            "byteLength" : 9768,
            "byteOffset" : 85696
        },
        {
            "buffer" : 0,
            "byteLength" : 627627,
            "byteOffset" : 95464
        }
    ],
    "buffers" : [
        {
            "byteLength" : 723092,
            "uri" : "data:application/octet-stream;base64,"
        }
    ]
}
